<?xml version="1.0" encoding="iso-8859-1"?>
<!-- Generator: Adobe Illustrator 19.0.0, SVG Export Plug-In . SVG Version: 6.00 Build 0)  -->
<svg version="1.1" id="Layer_1" xmlns="http://www.w3.org/2000/svg" xmlns:xlink="http://www.w3.org/1999/xlink" x="0px" y="0px"
	 viewBox="0 0 503.461 503.461" style="enable-background:new 0 0 503.461 503.461;" xml:space="preserve">
<path style="fill:#348BC6;" d="M251.731,503.461c-10.886,0-19.7-8.814-19.7-19.692V19.692c0-10.878,8.814-19.692,19.7-19.692
	c10.878,0,19.684,8.814,19.684,19.692v464.077C271.415,494.647,262.609,503.461,251.731,503.461z"/>
<path style="fill:#348BC6;" d="M483.769,271.423H19.692C8.814,271.423,0,262.609,0,251.731c0-10.878,8.814-19.692,19.692-19.692
	h464.077c10.878,0,19.692,8.814,19.692,19.692C503.461,262.609,494.647,271.423,483.769,271.423z"/>
<g>
	<circle style="fill:#27C4CC;" cx="173.938" cy="173.946" r="21.662"/>
	<circle style="fill:#27C4CC;" cx="329.476" cy="329.476" r="21.662"/>
	<circle style="fill:#27C4CC;" cx="173.946" cy="329.476" r="21.662"/>
	<circle style="fill:#27C4CC;" cx="329.476" cy="173.946" r="21.662"/>
</g>
<g>
</g>
<g>
</g>
<g>
</g>
<g>
</g>
<g>
</g>
<g>
</g>
<g>
</g>
<g>
</g>
<g>
</g>
<g>
</g>
<g>
</g>
<g>
</g>
<g>
</g>
<g>
</g>
<g>
</g>
</svg>
