<svg width="27" height="40" viewBox="0 0 27 40" fill="none" xmlns="http://www.w3.org/2000/svg">
<path fill-rule="evenodd" clip-rule="evenodd" d="M13.4885 0C16.0841 10.957 19.2363 11.5234 24.6218 19.7559C26.0217 21.8945 27 24.1699 27 26.7806C27 30.4069 25.6759 33.5156 23.0243 36.1068C20.3628 38.6979 17.1908 40 13.4951 40C9.8092 40 6.64377 38.6979 3.98231 36.1068C1.32744 33.5156 0 30.4069 0 26.7806C0 24.1569 0.994754 21.8652 2.40783 19.7135C7.80322 11.5007 10.9423 10.9212 13.4885 0ZM5.78736 23.3659C6.54166 23.2975 7.20703 23.8477 7.27291 24.5898C7.44419 26.3867 7.84275 28.0436 8.60364 29.4727C9.33817 30.8529 10.4317 32.041 12.0128 32.9557C12.665 33.3333 12.8824 34.1634 12.5003 34.8047C12.1182 35.4492 11.2783 35.6641 10.6294 35.2865C8.5707 34.0951 7.14444 32.5456 6.17933 30.7324C5.20764 28.9063 4.7432 26.875 4.54886 24.834C4.47969 24.0951 5.03965 23.4342 5.78736 23.3659Z" fill="#42A5F5"/>
</svg>
